<svg width="24" height="24" viewBox="0 0 24 24" fill="none" xmlns="http://www.w3.org/2000/svg">
<circle cx="11.5788" cy="7.27803" r="4.77803" stroke="black" stroke-width="1.5" stroke-linecap="round" stroke-linejoin="round"/>
<path fill-rule="evenodd" clip-rule="evenodd" d="M4.00002 18.7013C3.99873 18.3654 4.07385 18.0336 4.2197 17.7311C4.67736 16.8157 5.96798 16.3306 7.03892 16.1109C7.81128 15.9461 8.59431 15.836 9.38217 15.7814C10.8408 15.6533 12.3079 15.6533 13.7666 15.7814C14.5544 15.8366 15.3374 15.9467 16.1099 16.1109C17.1808 16.3306 18.4714 16.77 18.9291 17.7311C19.2224 18.3479 19.2224 19.0639 18.9291 19.6807C18.4714 20.6418 17.1808 21.0812 16.1099 21.2917C15.3384 21.4633 14.5551 21.5766 13.7666 21.6304C12.5794 21.731 11.3866 21.7494 10.1968 21.6853C9.92221 21.6853 9.65677 21.6853 9.38217 21.6304C8.59663 21.5772 7.81632 21.464 7.04807 21.2917C5.96798 21.0812 4.68652 20.6418 4.2197 19.6807C4.0746 19.3746 3.99955 19.04 4.00002 18.7013Z" stroke="black" stroke-width="1.5" stroke-linecap="round" stroke-linejoin="round"/>
<path d="M10.0516 9.83789C9.89026 9.83789 9.76578 9.79409 9.67819 9.70649C9.5952 9.61429 9.55371 9.48519 9.55371 9.31922V5.37731C9.55371 5.20211 9.5952 5.06841 9.67819 4.9762C9.76578 4.88399 9.88104 4.83789 10.024 4.83789C10.1484 4.83789 10.2429 4.86325 10.3075 4.91396C10.3766 4.96007 10.455 5.03844 10.5426 5.14909L12.9699 8.24038H12.7832V5.34965C12.7832 5.18828 12.8247 5.0638 12.9076 4.9762C12.9952 4.88399 13.1197 4.83789 13.2811 4.83789C13.4424 4.83789 13.5646 4.88399 13.6476 4.9762C13.7352 5.0638 13.779 5.18828 13.779 5.34965V9.33997C13.779 9.49211 13.7398 9.61429 13.6614 9.70649C13.583 9.79409 13.477 9.83789 13.3433 9.83789C13.2142 9.83789 13.1105 9.81253 13.0321 9.76182C12.9584 9.7111 12.8777 9.63042 12.7901 9.51977L10.3697 6.42849H10.5495V9.31922C10.5495 9.48519 10.508 9.61429 10.425 9.70649C10.3421 9.79409 10.2176 9.83789 10.0516 9.83789Z" fill="black"/>
</svg>
