<svg width="24" height="24" viewBox="0 0 24 24" fill="none" xmlns="http://www.w3.org/2000/svg">
<path d="M18.364 6.63495C17.6129 5.88617 16.5955 5.4657 15.535 5.4657C14.4744 5.4657 13.4571 5.88617 12.706 6.63495L8.17197 11.17C7.93871 11.4018 7.7538 11.6776 7.62797 11.9814C7.50214 12.2853 7.4379 12.6111 7.43897 12.94C7.43897 13.2682 7.50368 13.5933 7.62941 13.8966C7.75513 14.1999 7.9394 14.4754 8.17168 14.7074C8.40396 14.9394 8.67969 15.1233 8.98311 15.2487C9.28652 15.374 9.61168 15.4383 9.93997 15.438C10.58 15.438 11.219 15.196 11.707 14.708L13.829 12.587C14.2034 12.2116 14.4137 11.7031 14.4137 11.173C14.4137 10.6428 14.2034 10.1343 13.829 9.75895L10.293 13.294C10.1991 13.3878 10.0717 13.4406 9.93897 13.4406C9.80619 13.4406 9.67886 13.3878 9.58497 13.294C9.49108 13.2001 9.43834 13.0727 9.43834 12.94C9.43834 12.8072 9.49108 12.6798 9.58497 12.586L14.12 8.04895C14.4959 7.67486 15.0046 7.46486 15.535 7.46486C16.0653 7.46486 16.5741 7.67486 16.95 8.04895C17.3242 8.4244 17.5343 8.93287 17.5343 9.46295C17.5343 9.99304 17.3242 10.5015 16.95 10.877L12.413 15.414L9.87797 17.949C9.50253 18.3232 8.99406 18.5333 8.46397 18.5333C7.93388 18.5333 7.42541 18.3232 7.04997 17.949C6.67527 17.5738 6.46481 17.0652 6.46481 16.535C6.46481 16.0047 6.67527 15.4961 7.04997 15.121L7.14497 15.025C6.68901 14.4103 6.44288 13.6653 6.44297 12.9L5.63597 13.707C4.88682 14.4575 4.46606 15.4745 4.46606 16.535C4.46606 17.5954 4.88682 18.6125 5.63597 19.363C6.41497 20.142 7.43997 20.533 8.46397 20.533C9.48797 20.533 10.513 20.142 11.292 19.363L18.364 12.291C19.1131 11.5405 19.5339 10.5234 19.5339 9.46295C19.5339 8.40254 19.1131 7.38545 18.364 6.63495Z" fill="black"/>
</svg>
