<svg width="32" height="31" viewBox="0 0 32 31" fill="none" xmlns="http://www.w3.org/2000/svg">
<path d="M29.375 6.62454H22.4688C22.3059 4.9223 21.5145 3.34185 20.2491 2.19171C18.9836 1.04157 17.335 0.404297 15.625 0.404297C13.915 0.404297 12.2664 1.04157 11.0009 2.19171C9.73549 3.34185 8.94411 4.9223 8.78125 6.62454H1.875C1.37772 6.62454 0.900806 6.82208 0.549175 7.17371C0.197544 7.52534 0 8.00226 0 8.49954V28.4995C0 28.9968 0.197544 29.4737 0.549175 29.8254C0.900806 30.177 1.37772 30.3745 1.875 30.3745H29.375C29.8723 30.3745 30.3492 30.177 30.7008 29.8254C31.0525 29.4737 31.25 28.9968 31.25 28.4995V8.49954C31.25 8.00226 31.0525 7.52534 30.7008 7.17371C30.3492 6.82208 29.8723 6.62454 29.375 6.62454ZM15.625 1.62454C17.0083 1.62708 18.3424 2.13783 19.3737 3.05968C20.405 3.98153 21.0616 5.25022 21.2188 6.62454H10.0312C10.1883 5.25022 10.845 3.98153 11.8763 3.05968C12.9076 2.13783 14.2417 1.62708 15.625 1.62454ZM30 28.4995C30 28.6653 29.9342 28.8243 29.8169 28.9415C29.6997 29.0587 29.5408 29.1245 29.375 29.1245H1.875C1.70924 29.1245 1.55027 29.0587 1.43306 28.9415C1.31585 28.8243 1.25 28.6653 1.25 28.4995V8.49954C1.25 8.33378 1.31585 8.1748 1.43306 8.05759C1.55027 7.94038 1.70924 7.87454 1.875 7.87454H8.75V12.2495C8.75 12.4153 8.81585 12.5743 8.93306 12.6915C9.05027 12.8087 9.20924 12.8745 9.375 12.8745C9.54076 12.8745 9.69973 12.8087 9.81694 12.6915C9.93415 12.5743 10 12.4153 10 12.2495V7.87454H21.25V12.2495C21.25 12.4153 21.3158 12.5743 21.4331 12.6915C21.5503 12.8087 21.7092 12.8745 21.875 12.8745C22.0408 12.8745 22.1997 12.8087 22.3169 12.6915C22.4342 12.5743 22.5 12.4153 22.5 12.2495V7.87454H29.375C29.5408 7.87454 29.6997 7.94038 29.8169 8.05759C29.9342 8.1748 30 8.33378 30 8.49954V28.4995Z" fill="black"/>
</svg>