<svg width="24" height="24" viewBox="0 0 24 24" fill="none" xmlns="http://www.w3.org/2000/svg">
<path fill-rule="evenodd" clip-rule="evenodd" d="M12 2.40002C8.68627 2.40002 5.99998 5.08632 5.99998 8.40002V11.9367C5.99998 11.9959 5.98244 12.0538 5.94959 12.1031L3.90583 15.1687C3.70639 15.4679 3.59998 15.8194 3.59998 16.1789C3.59998 17.1847 4.41532 18 5.42108 18H18.5789C19.5847 18 20.4 17.1847 20.4 16.1789C20.4 15.8194 20.2935 15.4679 20.0941 15.1687L18.0504 12.1031C18.0175 12.0538 18 11.9959 18 11.9367V8.40002C18 5.08632 15.3137 2.40002 12 2.40002ZM7.79998 8.40002C7.79998 6.08042 9.68038 4.20002 12 4.20002C14.3196 4.20002 16.2 6.08042 16.2 8.40002V11.9367C16.2 12.3513 16.3227 12.7566 16.5527 13.1016L18.5964 16.1671C18.5988 16.1706 18.6 16.1747 18.6 16.1789C18.6 16.1816 18.5994 16.1848 18.5994 16.1848L18.5987 16.1868C18.5987 16.1868 18.5964 16.1913 18.5937 16.1938C18.5912 16.1964 18.5868 16.1987 18.5868 16.1987C18.5868 16.1987 18.5834 16.2 18.5789 16.2H5.42108C5.41651 16.2 5.41314 16.1987 5.41314 16.1987C5.41314 16.1987 5.40872 16.1964 5.40616 16.1938C5.4036 16.1913 5.40126 16.1868 5.40126 16.1868C5.40126 16.1868 5.39998 16.1835 5.39998 16.1789C5.39998 16.1747 5.40121 16.1706 5.40352 16.1671L7.44728 13.1016C7.67725 12.7566 7.79998 12.3513 7.79998 11.9367V8.40002Z" fill="black"/>
<path d="M14.3815 19.4994C14.2341 20.6836 13.2241 21.6 12 21.6C10.7759 21.6 9.76583 20.6836 9.61846 19.4994C9.598 19.335 9.73428 19.2 9.89997 19.2H14.1C14.2656 19.2 14.4019 19.335 14.3815 19.4994Z" fill="black"/>
</svg>
