<svg width="24" height="24" viewBox="0 0 24 24" fill="none" xmlns="http://www.w3.org/2000/svg">
<path d="M19.5 22H4.5C3.8372 21.9992 3.20178 21.7356 2.73311 21.2669C2.26444 20.7982 2.00079 20.1628 2 19.5V6.5C2.00079 5.8372 2.26444 5.20178 2.73311 4.73311C3.20178 4.26444 3.8372 4.00079 4.5 4L19.5 22ZM19.5 22C20.1629 21.9995 20.7985 21.7359 21.2672 21.2672M19.5 22L21.2672 21.2672M21.2672 21.2672C21.7359 20.7985 21.9995 20.1629 22 19.5L21.2672 21.2672ZM19.5001 3.85H19.5H16.65V2.5C16.65 2.32761 16.5815 2.16228 16.4596 2.04038C16.3377 1.91848 16.1724 1.85 16 1.85C15.8276 1.85 15.6623 1.91848 15.5404 2.04038C15.4185 2.16228 15.35 2.32761 15.35 2.5V3.85H8.65V2.5C8.65 2.32761 8.58152 2.16228 8.45962 2.04038L8.35436 2.14565L8.45962 2.04038C8.33772 1.91848 8.17239 1.85 8 1.85C7.82761 1.85 7.66228 1.91848 7.54038 2.04038C7.41848 2.16228 7.35 2.32761 7.35 2.5V3.85L4.5 3.85L4.49982 3.85C3.7973 3.85084 3.1238 4.13029 2.62704 4.62704C2.13029 5.1238 1.85084 5.7973 1.85 6.49982V6.5L1.85 19.5L1.85 19.5002C1.85084 20.2027 2.13029 20.8762 2.62704 21.373C3.1238 21.8697 3.7973 22.1492 4.49982 22.15H4.5H19.5H19.5001C20.2027 22.1494 20.8764 21.8701 21.3732 21.3732C21.8701 20.8764 22.1494 20.2027 22.15 19.5001V19.5V6.5V6.49988C22.1494 5.79726 21.8701 5.12358 21.3732 4.62675C20.8764 4.12992 20.2027 3.85056 19.5001 3.85ZM20.85 19.5C20.85 19.858 20.7078 20.2014 20.4546 20.4546C20.2014 20.7078 19.858 20.85 19.5 20.85H4.5C4.14196 20.85 3.79858 20.7078 3.54541 20.4546C3.29223 20.2014 3.15 19.858 3.15 19.5V11.15H20.85V19.5ZM20.85 9.85H3.15V6.5C3.15 5.75471 3.75297 5.15 4.5 5.15H7.35V6.5C7.35 6.67239 7.41848 6.83772 7.54038 6.95962C7.66228 7.08152 7.82761 7.15 8 7.15C8.17239 7.15 8.33772 7.08152 8.45962 6.95962C8.58152 6.83772 8.65 6.67239 8.65 6.5V5.15H15.35V6.5C15.35 6.67239 15.4185 6.83772 15.5404 6.95962C15.6623 7.08152 15.8276 7.15 16 7.15C16.1724 7.15 16.3377 7.08152 16.4596 6.95962C16.5815 6.83772 16.65 6.67239 16.65 6.5V5.15H19.5C19.858 5.15 20.2014 5.29223 20.4546 5.54541C20.7078 5.79858 20.85 6.14196 20.85 6.5V9.85Z" fill="black" stroke="black" stroke-width="0.3"/>
</svg>
