<svg width="18" height="18" viewBox="0 0 18 18" fill="none" xmlns="http://www.w3.org/2000/svg">
<path fill-rule="evenodd" clip-rule="evenodd" d="M6.08366 14.8332C6.77401 14.8332 7.33366 15.3928 7.33366 16.0832C7.33366 16.7735 6.77401 17.3332 6.08366 17.3332C5.3933 17.3332 4.83366 16.7735 4.83366 16.0832C4.83366 15.3928 5.3933 14.8332 6.08366 14.8332ZM13.5837 14.8332C14.274 14.8332 14.8337 15.3928 14.8337 16.0832C14.8337 16.7735 14.274 17.3332 13.5837 17.3332C12.8933 17.3332 12.3337 16.7735 12.3337 16.0832C12.3337 15.3928 12.8933 14.8332 13.5837 14.8332ZM1.50033 0.666504H3.16699C3.54666 0.666504 3.87391 0.922204 3.97121 1.28129L3.99064 1.37312L4.39475 3.99984H16.5003C17.0001 3.99984 17.3794 4.43374 17.3296 4.91679L17.3138 5.01395L15.9372 11.2088C15.694 12.3029 14.7552 13.0951 13.6486 13.1619L13.4967 13.1665H6.26352C5.07895 13.1665 4.06447 12.3368 3.8192 11.1914L3.79259 11.0466L2.45206 2.33317H1.50033C1.04009 2.33317 0.666992 1.96007 0.666992 1.49984C0.666992 1.07247 0.988692 0.720248 1.40314 0.67211L1.50033 0.666504H3.16699H1.50033ZM15.4615 5.6665H4.65116L5.43988 10.7932C5.49761 11.1685 5.8001 11.453 6.1698 11.4946L6.26352 11.4998H13.4967C13.8547 11.4998 14.1687 11.2719 14.2838 10.9402L14.3102 10.8473L15.4615 5.6665Z" fill="black"/>
</svg>