<svg width="24" height="24" viewBox="0 0 24 24" fill="none" xmlns="http://www.w3.org/2000/svg">
<path d="M21.6938 11.5407C21.6364 11.6772 21.5399 11.7937 21.4164 11.8754C21.293 11.9572 21.1481 12.0005 21 12.0001H17.25V19.5001C17.25 19.8979 17.092 20.2794 16.8107 20.5607C16.5294 20.842 16.1479 21.0001 15.75 21.0001H8.25002C7.8522 21.0001 7.47067 20.842 7.18936 20.5607C6.90806 20.2794 6.75002 19.8979 6.75002 19.5001V12.0001H3.00002C2.85196 12.0005 2.70706 11.9572 2.58361 11.8754C2.46015 11.7937 2.36365 11.6772 2.30627 11.5407C2.25224 11.4022 2.23853 11.2512 2.26674 11.1052C2.29494 10.9592 2.36391 10.8241 2.46565 10.7157L11.4656 1.71569C11.6078 1.57486 11.7999 1.49585 12 1.49585C12.2002 1.49585 12.3922 1.57486 12.5344 1.71569L21.5344 10.7157C21.6361 10.8241 21.7051 10.9592 21.7333 11.1052C21.7615 11.2512 21.7478 11.4022 21.6938 11.5407Z" fill="black"/>
</svg>
