<svg width="24" height="24" viewBox="0 0 24 24" fill="none" xmlns="http://www.w3.org/2000/svg">
<path d="M2.30623 10.9552C2.3636 10.8187 2.4601 10.7022 2.58356 10.6204C2.70701 10.5387 2.85191 10.4953 2.99998 10.4958L6.74998 10.4958L6.74998 2.99578C6.74998 2.59796 6.90801 2.21643 7.18932 1.93512C7.47062 1.65381 7.85215 1.49578 8.24998 1.49578L15.75 1.49578C16.1478 1.49578 16.5293 1.65382 16.8106 1.93512C17.0919 2.21643 17.25 2.59796 17.25 2.99578L17.25 10.4958L21 10.4958C21.148 10.4953 21.2929 10.5387 21.4164 10.6204C21.5399 10.7022 21.6363 10.8187 21.6937 10.9552C21.7478 11.0937 21.7615 11.2447 21.7333 11.3907C21.7051 11.5367 21.6361 11.6717 21.5344 11.7802L12.5344 20.7802C12.3922 20.921 12.2001 21 12 21C11.7998 21 11.6078 20.921 11.4656 20.7802L2.4656 11.7802C2.36386 11.6717 2.29489 11.5367 2.26669 11.3907C2.23848 11.2447 2.25219 11.0937 2.30623 10.9552Z" fill="black"/>
</svg>
