<svg width="24" height="24" viewBox="0 0 24 24" fill="none" xmlns="http://www.w3.org/2000/svg">
<path d="M12 1C18.0753 1 23 5.9258 23 12C23 18.0742 18.0753 23 12 23C5.9247 23 1 18.0742 1 12C1 5.9258 5.9247 1 12 1ZM12.0022 15.3044C11.855 15.2997 11.7084 15.3247 11.5711 15.3778C11.4338 15.4309 11.3085 15.5111 11.2028 15.6135C11.097 15.716 11.013 15.8386 10.9555 15.9742C10.8981 16.1098 10.8685 16.2555 10.8685 16.4028C10.8685 16.55 10.8981 16.6957 10.9555 16.8313C11.013 16.9669 11.097 17.0895 11.2028 17.192C11.3085 17.2944 11.4338 17.3746 11.5711 17.4277C11.7084 17.4808 11.855 17.5058 12.0022 17.5011C12.2875 17.4921 12.5581 17.3724 12.7567 17.1674C12.9553 16.9624 13.0663 16.6882 13.0663 16.4028C13.0663 16.1173 12.9553 15.8431 12.7567 15.6381C12.5581 15.4331 12.2875 15.3134 12.0022 15.3044ZM12 6.5C11.7304 6.50007 11.4702 6.59914 11.2689 6.7784C11.0675 6.95766 10.939 7.20462 10.9077 7.4724L10.9 7.6L10.9022 13.1011L10.9099 13.2298C10.9417 13.4972 11.0705 13.7436 11.2718 13.9223C11.4731 14.1011 11.733 14.1999 12.0022 14.1999C12.2714 14.1999 12.5313 14.1011 12.7326 13.9223C12.9339 13.7436 13.0627 13.4972 13.0945 13.2298L13.1022 13.1011L13.1 7.6L13.0923 7.4713C13.0608 7.20372 12.9321 6.95702 12.7308 6.77799C12.5295 6.59895 12.2694 6.50004 12 6.5Z" fill="black"/>
</svg>
