<svg width="24" height="24" viewBox="0 0 24 24" fill="none" xmlns="http://www.w3.org/2000/svg">
<path fill-rule="evenodd" clip-rule="evenodd" d="M12 1.5C17.799 1.5 22.5 6.20101 22.5 12C22.5 17.799 17.799 22.5 12 22.5C6.20101 22.5 1.5 17.799 1.5 12C1.5 6.20101 6.20101 1.5 12 1.5ZM12 3C7.02944 3 3 7.02944 3 12C3 16.9706 7.02944 21 12 21C16.9706 21 21 16.9706 21 12C21 7.02944 16.9706 3 12 3ZM12 6C12.3846 6 12.7016 6.3217 12.745 6.73615L12.75 6.83333V12.1548L15 14.25C15.2929 14.5754 15.2929 15.1031 15 15.4285C14.7296 15.7289 14.3042 15.752 14.01 15.4978L13.9393 15.4285L11.4697 13.0893C11.3525 12.959 11.2781 12.7901 11.2565 12.6095L11.25 12.5V6.83333C11.25 6.3731 11.5858 6 12 6Z" fill="black"/>
</svg>
