<svg width="24" height="24" viewBox="0 0 24 24" fill="none" xmlns="http://www.w3.org/2000/svg">
<path fill-rule="evenodd" clip-rule="evenodd" d="M11 15C11 14.4477 10.5523 14 10 14H3C2.44772 14 2 14.4477 2 15V21C2 21.5523 2.44772 22 3 22H10C10.5523 22 11 21.5523 11 21V15ZM9.5 16C9.5 15.5858 9.42955 15.5 9 15.5H4C3.57045 15.5 3.5 15.5858 3.5 16V20C3.5 20.4142 3.57045 20.5 4 20.5H9C9.42955 20.5 9.5 20.4142 9.5 20V16Z" fill="black"/>
<path fill-rule="evenodd" clip-rule="evenodd" d="M22 10C22 9.44772 21.5523 9 21 9H14C13.4477 9 13 9.44772 13 10V21C13 21.5523 13.4477 22 14 22H21C21.5523 22 22 21.5523 22 21V10ZM20.5 11C20.5 10.5327 20.4296 10.5 20 10.5H15C14.5704 10.5 14.5 10.5327 14.5 11V20C14.5 20.4673 14.5704 20.5 15 20.5H20C20.4296 20.5 20.5 20.4673 20.5 20V11Z" fill="black"/>
<path fill-rule="evenodd" clip-rule="evenodd" d="M11 3C11 2.44772 10.5523 2 10 2H3C2.44772 2 2 2.44772 2 3V11C2 11.5523 2.44772 12 3 12H10C10.5523 12 11 11.5523 11 11V3ZM9.5 3.86182C9.5 3.41999 9.42955 3.5 9 3.5H4C3.57045 3.5 3.5 3.55817 3.5 4V10C3.5 10.4418 3.57045 10.5 4 10.5H9C9.42955 10.5 9.5 10.4418 9.5 10V3.86182Z" fill="black"/>
<path fill-rule="evenodd" clip-rule="evenodd" d="M22 3C22 2.44772 21.5523 2 21 2H14C13.4477 2 13 2.44772 13 3V6C13 6.55228 13.4477 7 14 7H21C21.5523 7 22 6.55228 22 6V3ZM20.5 4C20.5 3.66863 20.4296 3.5 20 3.5H15C14.5704 3.5 14.5 3.66863 14.5 4V5C14.5 5.33137 14.5704 5.5 15 5.5H20C20.4296 5.5 20.5 5.33137 20.5 5V4Z" fill="black"/>
</svg>
