<svg width="24" height="24" viewBox="0 0 24 24" fill="none" xmlns="http://www.w3.org/2000/svg">
<path fill-rule="evenodd" clip-rule="evenodd" d="M11 18H5C3.34315 18 2 16.6569 2 15V5C2 3.34315 3.34315 2 5 2H19C20.6569 2 22 3.34315 22 5V15C22 16.6569 20.6569 18 19 18H13V20H15C15.5523 20 16 20.4477 16 21C16 21.5523 15.5523 22 15 22H9C8.44772 22 8 21.5523 8 21C8 20.4477 8.44772 20 9 20H11V18ZM7 8.25C7 7.83579 7.33579 7.5 7.75 7.5H16.25C16.6642 7.5 17 7.83579 17 8.25C17 8.66421 16.6642 9 16.25 9H7.75C7.33579 9 7 8.66421 7 8.25ZM7 12.25C7 11.8358 7.33579 11.5 7.75 11.5H12.25C12.6642 11.5 13 11.8358 13 12.25C13 12.6642 12.6642 13 12.25 13H7.75C7.33579 13 7 12.6642 7 12.25Z" fill="black"/>
</svg>
