 <svg width="24" height="24" viewBox="0 0 24 24" fill="none" xmlns="http://www.w3.org/2000/svg">
<path d="M11.9999 17.0624C9.33333 17.0624 7.17475 14.9984 6.97612 12.3828L3.28827 9.53276C2.80347 10.141 2.35734 10.784 1.99735 11.4871C1.91692 11.6462 1.87502 11.8219 1.87502 12.0002C1.87502 12.1784 1.91692 12.3542 1.99735 12.5133C3.90385 16.2331 7.67819 18.7499 11.9999 18.7499C12.9459 18.7499 13.8586 18.6093 14.7382 18.3822L12.914 16.9707C12.6127 17.0289 12.3067 17.0596 11.9999 17.0624ZM23.0325 19.105L19.146 16.1013C20.3266 15.1063 21.2976 13.8866 22.0025 12.5129C22.0829 12.3538 22.1248 12.1781 22.1248 11.9998C22.1248 11.8216 22.0829 11.6458 22.0025 11.4867C20.096 7.76688 16.3216 5.25007 11.9999 5.25007C10.1899 5.25226 8.40929 5.70793 6.82073 6.57545L2.3482 3.11857C2.28988 3.07318 2.22319 3.03974 2.15193 3.02014C2.08068 3.00054 2.00626 2.99518 1.93293 3.00435C1.8596 3.01353 1.7888 3.03706 1.72457 3.07361C1.66034 3.11016 1.60394 3.159 1.5586 3.21736L0.868491 4.10574C0.776944 4.22351 0.735923 4.37282 0.754449 4.52083C0.772975 4.66884 0.84953 4.80342 0.967279 4.89499L21.6516 20.8814C21.7099 20.9268 21.7766 20.9603 21.8479 20.9799C21.9191 20.9995 21.9935 21.0048 22.0669 20.9956C22.1402 20.9865 22.211 20.9629 22.2752 20.9264C22.3395 20.8898 22.3959 20.841 22.4412 20.7826L23.1317 19.8943C23.2232 19.7764 23.2641 19.6271 23.2455 19.4791C23.2269 19.3311 23.1503 19.1965 23.0325 19.105ZM16.5737 14.1129L15.1921 13.0448C15.3084 12.7086 15.3701 12.3558 15.3749 12C15.3817 11.4791 15.2663 10.9638 15.0379 10.4956C14.8095 10.0274 14.4745 9.61923 14.0597 9.30397C13.645 8.98871 13.1621 8.77512 12.6498 8.68035C12.1375 8.58558 11.6102 8.61227 11.1101 8.75828C11.3221 9.04553 11.4368 9.39301 11.4374 9.75002C11.4322 9.86883 11.414 9.98671 11.3833 10.1016L8.79544 8.10156C9.69437 7.35035 10.8284 6.93842 11.9999 6.93755C12.6648 6.93718 13.3233 7.06787 13.9377 7.32215C14.552 7.57644 15.1103 7.94932 15.5804 8.41948C16.0506 8.88965 16.4235 9.44788 16.6777 10.0622C16.932 10.6766 17.0627 11.3351 17.0623 12C17.0623 12.7604 16.8764 13.4692 16.5737 14.1132V14.1129Z" fill="black"/>
</svg>
