
<svg width="24" height="24" viewBox="0 0 24 24" fill="none" xmlns="http://www.w3.org/2000/svg">
<path d="M22.3731 11.4677C20.396 7.61005 16.4818 5 12 5C7.51819 5 3.60293 7.61188 1.62689 11.4681C1.54348 11.6331 1.50003 11.8153 1.50003 12.0002C1.50003 12.185 1.54348 12.3673 1.62689 12.5323C3.60402 16.3899 7.51819 19 12 19C16.4818 19 20.3971 16.3881 22.3731 12.5319C22.4565 12.3669 22.5 12.1847 22.5 11.9998C22.5 11.815 22.4565 11.6327 22.3731 11.4677ZM12 17.25C10.9617 17.25 9.94662 16.9421 9.08327 16.3652C8.21991 15.7883 7.547 14.9684 7.14964 14.0091C6.75228 13.0498 6.64832 11.9942 6.85089 10.9758C7.05346 9.95738 7.55347 9.02191 8.2877 8.28769C9.02193 7.55346 9.95739 7.05345 10.9758 6.85088C11.9942 6.6483 13.0498 6.75227 14.0091 7.14963C14.9684 7.54699 15.7883 8.2199 16.3652 9.08326C16.9421 9.94661 17.25 10.9616 17.25 12C17.2503 12.6895 17.1148 13.3724 16.8511 14.0095C16.5873 14.6466 16.2006 15.2255 15.7131 15.7131C15.2255 16.2006 14.6466 16.5873 14.0095 16.8511C13.3724 17.1148 12.6895 17.2503 12 17.25ZM12 8.5C11.6876 8.50437 11.3772 8.55084 11.0772 8.63818C11.3245 8.9742 11.4432 9.38772 11.4117 9.80373C11.3802 10.2197 11.2007 10.6107 10.9057 10.9057C10.6107 11.2007 10.2198 11.3802 9.80374 11.4117C9.38773 11.4432 8.97421 11.3245 8.63819 11.0772C8.44684 11.7822 8.48138 12.5294 8.73695 13.2137C8.99251 13.898 9.45623 14.4849 10.0628 14.8919C10.6694 15.2988 11.3884 15.5053 12.1185 15.4822C12.8486 15.4591 13.5531 15.2077 14.1328 14.7633C14.7125 14.3189 15.1382 13.7038 15.3501 13.0048C15.562 12.3057 15.5493 11.5578 15.3138 10.8664C15.0784 10.1749 14.632 9.57466 14.0375 9.15016C13.4431 8.72567 12.7305 8.49828 12 8.5Z" fill="black"/>
</svg>
