<svg width="24" height="24" viewBox="0 0 24 24" fill="none" xmlns="http://www.w3.org/2000/svg">
<path d="M23.0391 19.5586L2.01563 3.1234C1.95797 3.07723 1.89178 3.04287 1.82083 3.02229C1.74989 3.0017 1.67559 2.99529 1.60217 3.00342C1.52875 3.01154 1.45765 3.03406 1.39293 3.06966C1.32821 3.10527 1.27114 3.15327 1.22497 3.21094L0.873406 3.65004C0.82713 3.70772 0.792682 3.77397 0.772035 3.84498C0.751387 3.91599 0.744944 3.99037 0.753075 4.06388C0.761205 4.13738 0.78375 4.20856 0.819419 4.27334C0.855088 4.33812 0.903181 4.39523 0.960945 4.44141L21.9844 20.8766C22.042 20.9228 22.1082 20.9571 22.1792 20.9777C22.2501 20.9983 22.3244 21.0047 22.3978 20.9966C22.4713 20.9885 22.5424 20.9659 22.6071 20.9303C22.6718 20.8947 22.7289 20.8467 22.775 20.7891L23.1266 20.35C23.1729 20.2923 23.2073 20.226 23.228 20.155C23.2486 20.084 23.2551 20.0096 23.2469 19.9361C23.2388 19.8626 23.2163 19.7914 23.1806 19.7267C23.1449 19.6619 23.0968 19.6048 23.0391 19.5586ZM11.184 8.14934L15.9227 11.8541C15.8447 9.74684 14.1263 8.0625 12 8.0625C11.7257 8.06301 11.4523 8.09212 11.184 8.14934ZM12.816 15.851L8.07727 12.1463C8.15567 14.2532 9.87411 15.9375 12 15.9375C12.2743 15.9369 12.5477 15.9079 12.816 15.851ZM12 6.9375C15.4682 6.9375 18.6477 8.87109 20.3647 12C19.9438 12.7701 19.4238 13.4816 18.8179 14.1164L20.1447 15.1535C20.8834 14.3633 21.5092 13.4747 22.0044 12.5129C22.0848 12.3538 22.1267 12.1781 22.1267 11.9998C22.1267 11.8216 22.0848 11.6458 22.0044 11.4867C20.0961 7.76684 16.3218 5.25 12 5.25C10.7098 5.25 9.47895 5.49609 8.32161 5.91129L9.95321 7.18711C10.6191 7.03594 11.3011 6.9375 12 6.9375ZM12 17.0625C8.53184 17.0625 5.35266 15.1289 3.63528 12C4.05673 11.23 4.57738 10.5185 5.18391 9.88395L3.85712 8.84684C3.11854 9.63697 2.4928 10.5255 1.9977 11.4871C1.91728 11.6462 1.87538 11.8219 1.87538 12.0002C1.87538 12.1784 1.91728 12.3542 1.9977 12.5133C3.90423 16.2332 7.6786 18.75 12 18.75C13.2902 18.75 14.5211 18.5021 15.6784 18.0887L14.0468 16.8132C13.3809 16.9641 12.6993 17.0625 12 17.0625Z" fill="black"/>
</svg>
