<svg width="24" height="24" viewBox="0 0 24 24" fill="none" xmlns="http://www.w3.org/2000/svg">
<path d="M12 7.91667C11.6136 7.92271 11.23 7.98409 10.8611 8.09896C11.0317 8.39913 11.1226 8.73804 11.125 9.08333C11.125 9.35145 11.0722 9.61694 10.9696 9.86465C10.867 10.1124 10.7166 10.3374 10.527 10.527C10.3374 10.7166 10.1124 10.867 9.86466 10.9696C9.61695 11.0722 9.35146 11.125 9.08334 11.125C8.73805 11.1226 8.39914 11.0317 8.09897 10.861C7.86215 11.6824 7.88975 12.5574 8.17786 13.3622C8.46598 14.1669 9 14.8607 9.70429 15.3451C10.4086 15.8295 11.2474 16.08 12.102 16.0612C12.9566 16.0424 13.7836 15.7551 14.4659 15.2402C15.1481 14.7252 15.6511 14.0086 15.9035 13.192C16.1559 12.3753 16.1449 11.4999 15.8721 10.6898C15.5994 9.87968 15.0786 9.17593 14.3837 8.67823C13.6887 8.18052 12.8548 7.91409 12 7.91667ZM22.3731 11.4677C20.396 7.61005 16.4818 5 12 5C7.51819 5 3.60293 7.61188 1.62689 11.4681C1.54348 11.6331 1.50003 11.8153 1.50003 12.0002C1.50003 12.185 1.54348 12.3673 1.62689 12.5323C3.60402 16.3899 7.51819 19 12 19C16.4818 19 20.3971 16.3881 22.3731 12.5319C22.4565 12.3669 22.5 12.1847 22.5 11.9998C22.5 11.815 22.4565 11.6327 22.3731 11.4677ZM12 17.25C8.4034 17.25 5.1061 15.2448 3.32548 12C5.1061 8.75521 8.40303 6.75 12 6.75C15.597 6.75 18.8939 8.75521 20.6745 12C18.8943 15.2448 15.597 17.25 12 17.25Z" fill="black"/>
</svg>
