<svg width="24" height="24" viewBox="0 0 24 24" fill="none" xmlns="http://www.w3.org/2000/svg">
<path d="M8.5 13.498L11 16.504L14.5 11.998L19 17.998H5M21 18.998V4.99805C21 4.46761 20.7893 3.95891 20.4142 3.58383C20.0391 3.20876 19.5304 2.99805 19 2.99805H5C4.46957 2.99805 3.96086 3.20876 3.58579 3.58383C3.21071 3.95891 3 4.46761 3 4.99805V18.998C3 19.5285 3.21071 20.0372 3.58579 20.4123C3.96086 20.7873 4.46957 20.998 5 20.998H19C19.5304 20.998 20.0391 20.7873 20.4142 20.4123C20.7893 20.0372 21 19.5285 21 18.998Z" fill="black"/>
</svg>
