<svg width="24" height="24" viewBox="0 0 24 24" fill="none" xmlns="http://www.w3.org/2000/svg">
<path fill-rule="evenodd" clip-rule="evenodd" d="M5 2.5C4.72386 2.5 4.5 2.72386 4.5 3V21C4.5 21.2761 4.72386 21.5 5 21.5H19C19.2761 21.5 19.5 21.2761 19.5 21V8.5H15.5C14.3954 8.5 13.5 7.60457 13.5 6.5V2.5H5ZM15 2.50032V6.5C15 6.77614 15.2239 7 15.5 7H19.4997C19.4952 6.87384 19.4431 6.75379 19.3536 6.66421L15.3358 2.64645C15.2462 2.55687 15.1262 2.5048 15 2.50032ZM3 3C3 1.89543 3.89543 1 5 1H14.9822C15.5127 1 16.0214 1.21071 16.3964 1.58579L20.4142 5.60355C20.7893 5.97863 21 6.48733 21 7.01777V21C21 22.1046 20.1046 23 19 23H5C3.89543 23 3 22.1046 3 21V3Z" fill="black"/>
<path d="M7.75 11C7.33579 11 7 11.3358 7 11.75C7 12.1642 7.33579 12.5 7.75 12.5H16.25C16.6642 12.5 17 12.1642 17 11.75C17 11.3358 16.6642 11 16.25 11H7.75Z" fill="black"/>
<path d="M7 15.75C7 15.3358 7.33579 15 7.75 15H12.25C12.6642 15 13 15.3358 13 15.75C13 16.1642 12.6642 16.5 12.25 16.5H7.75C7.33579 16.5 7 16.1642 7 15.75Z" fill="black"/>
</svg>
