<svg width="21" height="20" viewBox="0 0 21 20" fill="none" xmlns="http://www.w3.org/2000/svg">
<path d="M14.5293 12.5786H13.6349L13.3179 12.2699C14.4274 10.9663 15.0954 9.27387 15.0954 7.43282C15.0954 3.32762 11.8007 0 7.73618 0C3.67162 0 0.376953 3.32762 0.376953 7.43282C0.376953 11.538 3.67162 14.8656 7.73618 14.8656C9.559 14.8656 11.2346 14.191 12.5253 13.0703L12.831 13.3905V14.2939L18.492 20L20.1789 18.2962L14.5293 12.5786ZM7.73618 12.5786C4.91703 12.5786 2.64133 10.2802 2.64133 7.43282C2.64133 4.58548 4.91703 2.28702 7.73618 2.28702C10.5553 2.28702 12.831 4.58548 12.831 7.43282C12.831 10.2802 10.5553 12.5786 7.73618 12.5786Z" fill="#959595"/>
</svg>