<svg width="24" height="24" viewBox="0 0 24 24" fill="none" xmlns="http://www.w3.org/2000/svg">
<path d="M6.64289 20C6.48753 20 6.33744 19.9417 6.22036 19.8358C6.10327 19.7299 6.02713 19.5836 6.006 19.424L6 19.3333V4.66647C6.00005 4.49756 6.06193 4.33496 6.17313 4.21154C6.28433 4.08812 6.43656 4.01306 6.59907 4.00155C6.76157 3.99004 6.92224 4.04292 7.04859 4.14952C7.17495 4.25611 7.25757 4.40847 7.27977 4.5758L7.28577 4.66647V19.3333C7.28577 19.5101 7.21804 19.6797 7.09748 19.8047C6.97691 19.9298 6.81339 20 6.64289 20ZM17.812 19.8044C17.7031 19.9173 17.5588 19.986 17.4053 19.9979C17.2518 20.0098 17.0992 19.9642 16.9754 19.8693L16.9034 19.8044L9.83161 12.471C9.72273 12.3581 9.65653 12.2085 9.64505 12.0493C9.63357 11.8901 9.67756 11.7319 9.76904 11.6034L9.83161 11.5288L16.9034 4.19535C17.0182 4.07717 17.1718 4.00824 17.3336 4.00234C17.4953 3.99643 17.6532 4.05398 17.7758 4.1635C17.8984 4.27301 17.9766 4.42644 17.9949 4.59316C18.0133 4.75987 17.9703 4.92762 17.8746 5.06292L17.812 5.13759L11.1945 11.9999L17.812 18.8622C17.9324 18.9872 18 19.1567 18 19.3333C18 19.51 17.9324 19.6794 17.812 19.8044Z" fill="black"/>
</svg>
