<svg width="19" height="18" viewBox="0 0 19 18" fill="none" xmlns="http://www.w3.org/2000/svg">
<g clip-path="url(#clip0_485_2854)">
<path fill-rule="evenodd" clip-rule="evenodd" d="M18.14 9.20456C18.14 8.56637 18.0827 7.95274 17.9764 7.36365H9.5V10.845H14.3436C14.135 11.97 13.5009 12.9232 12.5477 13.5614V15.8196H15.4564C17.1582 14.2527 18.14 11.9455 18.14 9.20456Z" fill="#4285F4"/>
<path fill-rule="evenodd" clip-rule="evenodd" d="M9.49976 18C11.9298 18 13.967 17.1941 15.4561 15.8195L12.5475 13.5614C11.7416 14.1014 10.7107 14.4204 9.49976 14.4204C7.15567 14.4204 5.17158 12.8373 4.46385 10.71H1.45703V13.0418C2.93794 15.9832 5.98158 18 9.49976 18Z" fill="#34A853"/>
<path fill-rule="evenodd" clip-rule="evenodd" d="M4.46409 10.71C4.28409 10.17 4.18182 9.59319 4.18182 9.00001C4.18182 8.40683 4.28409 7.83001 4.46409 7.29001V4.95819H1.45727C0.847727 6.17319 0.5 7.54774 0.5 9.00001C0.5 10.4523 0.847727 11.8268 1.45727 13.0418L4.46409 10.71Z" fill="#FBBC05"/>
<path fill-rule="evenodd" clip-rule="evenodd" d="M9.49976 3.57955C10.8211 3.57955 12.0075 4.03364 12.9402 4.92545L15.5216 2.34409C13.9629 0.891818 11.9257 0 9.49976 0C5.98158 0 2.93794 2.01682 1.45703 4.95818L4.46385 7.29C5.17158 5.16273 7.15567 3.57955 9.49976 3.57955Z" fill="#EA4335"/>
</g>
<defs>
<clipPath id="clip0_485_2854">
<rect width="18" height="18" fill="white" transform="translate(0.5)"/>
</clipPath>
</defs>
</svg>
