<svg width="20" height="20" viewBox="0 0 20 20" fill="none" xmlns="http://www.w3.org/2000/svg">
<path d="M10.1 16.9482L10 17.0572L9.89 16.9482C5.14 12.2507 2 9.14441 2 5.99455C2 3.81471 3.5 2.17984 5.5 2.17984C7.04 2.17984 8.54 3.26975 9.07 4.75204H10.93C11.46 3.26975 12.96 2.17984 14.5 2.17984C16.5 2.17984 18 3.81471 18 5.99455C18 9.14441 14.86 12.2507 10.1 16.9482ZM14.5 0C12.76 0 11.09 0.882834 10 2.26703C8.91 0.882834 7.24 0 5.5 0C2.42 0 0 2.6267 0 5.99455C0 10.1035 3.4 13.4714 8.55 18.5613L10 20L11.45 18.5613C16.6 13.4714 20 10.1035 20 5.99455C20 2.6267 17.58 0 14.5 0Z" fill="black"/>
</svg>