<svg width="24" height="24" viewBox="0 0 24 24" fill="none" xmlns="http://www.w3.org/2000/svg">
<path d="M17.3571 4C17.5125 4.00001 17.6626 4.05835 17.7796 4.16424C17.8967 4.27013 17.9729 4.4164 17.994 4.57601L18 4.66668V19.3335C18 19.5024 17.9381 19.665 17.8269 19.7885C17.7157 19.9119 17.5634 19.9869 17.4009 19.9984C17.2384 20.01 17.0778 19.9571 16.9514 19.8505C16.8251 19.7439 16.7424 19.5915 16.7202 19.4242L16.7142 19.3335V4.66668C16.7142 4.48986 16.782 4.32029 16.9025 4.19526C17.0231 4.07024 17.1866 4 17.3571 4ZM6.18801 4.19556C6.29687 4.08265 6.44118 4.014 6.59471 4.0021C6.74824 3.99019 6.90079 4.03581 7.02463 4.13067L7.09663 4.19556L14.1684 11.529C14.2773 11.6419 14.3435 11.7915 14.3549 11.9507C14.3664 12.1099 14.3224 12.2681 14.231 12.3966L14.1684 12.4712L7.09663 19.8046C6.98177 19.9228 6.82815 19.9918 6.66644 19.9977C6.50473 20.0036 6.34682 19.946 6.22423 19.8365C6.10163 19.727 6.02337 19.5736 6.00506 19.4068C5.98675 19.2401 6.02973 19.0724 6.12544 18.9371L6.18801 18.8624L12.8055 12.0001L6.18801 5.13779C6.06762 5.01279 6 4.84334 6 4.66668C6 4.49001 6.06762 4.32056 6.18801 4.19556Z" fill="black"/>
</svg>
