<svg width="24" height="24" viewBox="0 0 24 24" fill="none" xmlns="http://www.w3.org/2000/svg">
<path d="M9.1 2C7.9402 2 7 2.9402 7 4.1V6H8.4V4.1C8.4 3.7134 8.7134 3.4 9.1 3.4H18.9C19.2866 3.4 19.6 3.7134 19.6 4.1V11.1C19.6 11.4866 19.2866 11.8 18.9 11.8H12V13.2H13.3V14.6H11.9C11.5134 14.6 11.2 14.9134 11.2 15.3C11.2 15.6866 11.5134 16 11.9 16H16.1C16.4866 16 16.8 15.6866 16.8 15.3C16.8 14.9134 16.4866 14.6 16.1 14.6H14.7V13.2H18.9C20.0598 13.2 21 12.2598 21 11.1V4.1C21 2.9402 20.0598 2 18.9 2H9.1Z" fill="black"/>
<path d="M18 7V8H12V7H18Z" fill="black"/>
<path d="M18 5V6H10V5H18Z" fill="black"/>
<path fill-rule="evenodd" clip-rule="evenodd" d="M6.98245 21.826C3.73875 21.826 1 21.2988 1 19.2648C1 17.2299 3.75595 16.7214 6.98245 16.7214C10.2269 16.7214 12.9649 17.2486 12.9649 19.2827C12.9649 21.3175 10.209 21.826 6.98245 21.826ZM6.99999 20.5C4.69563 20.5 2.5 20.4507 2.5 19.2553C2.5 18.0594 4.70785 18 6.99999 18C9.30489 18 11.5 18.0598 11.5 19.2553C11.5 20.4511 9.29213 20.5 6.99999 20.5Z" fill="black"/>
<path fill-rule="evenodd" clip-rule="evenodd" d="M10.9413 10.9567C10.9413 13.153 9.18032 14.9141 6.98244 14.9141C4.78531 14.9141 3.02356 13.153 3.02356 10.9567C3.02356 8.76035 4.78531 7 6.98244 7C9.18032 7 10.9413 8.76035 10.9413 10.9567ZM9.5 10.9998C9.5 12.3874 8.38794 13.5 7 13.5C5.61253 13.5 4.5 12.3874 4.5 10.9998C4.5 9.61216 5.61253 8.5 7 8.5C8.38794 8.5 9.5 9.61216 9.5 10.9998Z" fill="black"/>
</svg>
