<svg width="24" height="24" viewBox="0 0 24 24" fill="none" xmlns="http://www.w3.org/2000/svg">
<path fill-rule="evenodd" clip-rule="evenodd" d="M21.4539 11.4514C21.4539 6.23152 17.2224 2 12.0025 2C6.78268 2 2.55108 6.23152 2.55108 11.4514C2.52383 12.1132 2.60903 12.8164 2.78121 13.5333C2.90477 14.083 3.07622 14.6145 3.29094 15.1233C5.14493 19.8015 9.86494 24.2001 10.5208 20.7873C11.0035 20.8633 11.4984 20.9027 12.0025 20.9027C17.2224 20.9027 21.4539 16.6712 21.4539 11.4514ZM12.0461 19.5C16.4644 19.5 20.0461 15.9183 20.0461 11.5C20.0461 7.08172 16.4644 3.5 12.0461 3.5C7.6278 3.5 4.04608 7.08172 4.04608 11.5C4.04608 15.9183 7.6278 19.5 12.0461 19.5Z" fill="black"/>
<path d="M9.24449 16.108C8.96449 16.108 8.74849 16.032 8.59649 15.88C8.45249 15.72 8.38049 15.496 8.38049 15.208V8.36801C8.38049 8.06401 8.45249 7.83201 8.59649 7.67201C8.74849 7.51201 8.94849 7.43201 9.19649 7.43201C9.41249 7.43201 9.57649 7.47601 9.68849 7.56401C9.80849 7.64401 9.94449 7.78001 10.0965 7.97201L14.3085 13.336H13.9845V8.32001C13.9845 8.04001 14.0565 7.82401 14.2005 7.67201C14.3525 7.51201 14.5685 7.43201 14.8485 7.43201C15.1285 7.43201 15.3405 7.51201 15.4845 7.67201C15.6365 7.82401 15.7125 8.04001 15.7125 8.32001V15.244C15.7125 15.508 15.6445 15.72 15.5085 15.88C15.3725 16.032 15.1885 16.108 14.9565 16.108C14.7325 16.108 14.5525 16.064 14.4165 15.976C14.2885 15.888 14.1485 15.748 13.9965 15.556L9.79649 10.192H10.1085V15.208C10.1085 15.496 10.0365 15.72 9.89249 15.88C9.74849 16.032 9.53249 16.108 9.24449 16.108Z" fill="black"/>
</svg>
