<svg width="18" height="18" viewBox="0 0 18 18" fill="none" xmlns="http://www.w3.org/2000/svg">
<path fill-rule="evenodd" clip-rule="evenodd" d="M13.1355 0.427136C13.705 -0.14238 14.6284 -0.142378 15.1979 0.427136L17.3527 2.58196C17.9222 3.15147 17.9222 4.07484 17.3527 4.64435L15.0253 6.97176L15.0149 6.98192L5.9915 15.5952C5.82665 15.7525 5.6272 15.8691 5.40917 15.9354L0.806992 17.3361C0.586173 17.4033 0.346289 17.3433 0.183074 17.1801C0.0198598 17.0169 -0.0401112 16.777 0.0270948 16.5562L1.42176 11.9737C1.4948 11.7337 1.62851 11.5166 1.80997 11.3434L10.8132 2.74941L13.1355 0.427136ZM11.2399 4.07021L2.67306 12.2476C2.64714 12.2724 2.62804 12.3034 2.61761 12.3376L1.56414 15.799L5.04522 14.7396C5.07637 14.7301 5.10486 14.7134 5.12841 14.691L13.6891 6.51943L11.2399 4.07021ZM14.5834 5.64594L16.4688 3.76047C16.5502 3.67911 16.5502 3.5472 16.4688 3.46584L14.314 1.31102C14.2326 1.22966 14.1007 1.22966 14.0194 1.31102L12.1339 3.19649L14.5834 5.64594Z" fill="black"/>
</svg>