<svg width="20" height="20" viewBox="0 0 20 20" fill="none" xmlns="http://www.w3.org/2000/svg">
<path fill-rule="evenodd" clip-rule="evenodd" d="M9.99991 2.0835C7.46864 2.0835 5.41665 4.13553 5.41665 6.66683C5.41665 8.24138 6.21062 9.6305 7.42003 10.4556C4.61624 11.4827 2.59659 14.1359 2.50321 17.2732C2.49294 17.6183 2.76432 17.9063 3.10934 17.9166C3.45437 17.9268 3.74239 17.6554 3.75266 17.3104C3.85277 13.9466 6.61152 11.2502 9.99984 11.2502C13.3882 11.2502 16.1469 13.9466 16.247 17.3104C16.2573 17.6554 16.5453 17.9268 16.8903 17.9166C17.2354 17.9063 17.5067 17.6183 17.4965 17.2732C17.4031 14.136 15.3835 11.4828 12.5797 10.4557C13.7892 9.63054 14.5832 8.24141 14.5832 6.66683C14.5832 4.13553 12.5312 2.0835 9.99991 2.0835ZM6.66665 6.66683C6.66665 4.82587 8.15901 3.3335 9.99991 3.3335C11.8408 3.3335 13.3332 4.82587 13.3332 6.66683C13.3332 8.50779 11.8408 10.0002 9.99991 10.0002C8.15901 10.0002 6.66665 8.50779 6.66665 6.66683Z" fill="black"/>
</svg>