<svg width="24" height="24" viewBox="0 0 24 24" fill="none" xmlns="http://www.w3.org/2000/svg">
<path fill-rule="evenodd" clip-rule="evenodd" d="M7.88586 1.55341C8.77935 0.659914 10.2963 0.978888 10.7543 2.15657L11.388 3.78609C11.7135 4.62316 12.2334 5.37086 12.9046 5.96755C13.5403 6.53255 14.2949 6.94723 15.1126 7.18087L19.0718 8.31205C20.3548 8.67862 20.772 10.2886 19.8284 11.2322L16.0605 15.0001L21.6551 20.5947C21.948 20.8876 21.948 21.3625 21.6551 21.6554C21.3623 21.9483 20.8874 21.9483 20.5945 21.6554L14.9998 16.0607L11.2319 19.8287C10.2884 20.7722 8.67838 20.355 8.31181 19.072L7.18062 15.1129C6.94699 14.2951 6.5323 13.5405 5.96731 12.9049C5.37062 12.2336 4.62291 11.7138 3.78585 11.3882L2.15632 10.7545C0.978643 10.2966 0.65967 8.7796 1.55317 7.8861L7.88586 1.55341ZM14.4746 14.4647C14.4729 14.4663 14.4712 14.468 14.4695 14.4697C14.4678 14.4714 14.4661 14.4731 14.4644 14.4748L10.1713 18.768C10.0365 18.9028 9.80646 18.8432 9.75409 18.6599L8.62291 14.7008C8.32743 13.6666 7.80297 12.7122 7.08842 11.9083C6.33378 11.0594 5.38816 10.4019 4.32952 9.99024L2.69999 9.35654C2.53175 9.29111 2.48618 9.0744 2.61383 8.94676L8.94652 2.61407C9.07416 2.48643 9.29087 2.532 9.35629 2.70024L9.99 4.32976C10.4017 5.3884 11.0591 6.33403 11.9081 7.08866C12.712 7.80322 13.6664 8.32768 14.7005 8.62315L18.6597 9.75434C18.843 9.8067 18.9026 10.0367 18.7678 10.1715L14.4746 14.4647Z" fill="black"/>
<path d="M14.4746 14.4647L14.4695 14.4697L14.4644 14.4748L10.1713 18.768C10.0365 18.9028 9.80646 18.8432 9.75409 18.6599L8.62291 14.7008C8.32743 13.6666 7.80297 12.7122 7.08842 11.9083C6.33378 11.0594 5.38816 10.4019 4.32952 9.99024L2.69999 9.35654C2.53175 9.29111 2.48618 9.0744 2.61383 8.94676L8.94652 2.61407C9.07416 2.48643 9.29087 2.532 9.35629 2.70024L9.99 4.32976C10.4017 5.3884 11.0591 6.33403 11.9081 7.08866C12.712 7.80322 13.6664 8.32768 14.7005 8.62315L18.6597 9.75434C18.843 9.8067 18.9026 10.0367 18.7678 10.1715L14.4746 14.4647Z" fill="black"/>
</svg>
<svg width="24" height="24" viewBox="0 0 24 24" fill="none" xmlns="http://www.w3.org/2000/svg">
<path fill-rule="evenodd" clip-rule="evenodd" d="M7.88586 1.55341C8.77935 0.659914 10.2963 0.978888 10.7543 2.15657L11.388 3.78609C11.7135 4.62316 12.2334 5.37086 12.9046 5.96755C13.5403 6.53255 14.2949 6.94723 15.1126 7.18087L19.0718 8.31205C20.3548 8.67862 20.772 10.2886 19.8284 11.2322L16.0605 15.0001L21.6551 20.5947C21.948 20.8876 21.948 21.3625 21.6551 21.6554C21.3623 21.9483 20.8874 21.9483 20.5945 21.6554L14.9998 16.0607L11.2319 19.8287C10.2884 20.7722 8.67838 20.355 8.31181 19.072L7.18062 15.1129C6.94699 14.2951 6.5323 13.5405 5.96731 12.9049C5.37062 12.2336 4.62291 11.7138 3.78585 11.3882L2.15632 10.7545C0.978643 10.2966 0.65967 8.7796 1.55317 7.8861L7.88586 1.55341ZM14.4746 14.4647C14.4729 14.4663 14.4712 14.468 14.4695 14.4697C14.4678 14.4714 14.4661 14.4731 14.4644 14.4748L10.1713 18.768C10.0365 18.9028 9.80646 18.8432 9.75409 18.6599L8.62291 14.7008C8.32743 13.6666 7.80297 12.7122 7.08842 11.9083C6.33378 11.0594 5.38816 10.4019 4.32952 9.99024L2.69999 9.35654C2.53175 9.29111 2.48618 9.0744 2.61383 8.94676L8.94652 2.61407C9.07416 2.48643 9.29087 2.532 9.35629 2.70024L9.99 4.32976C10.4017 5.3884 11.0591 6.33403 11.9081 7.08866C12.712 7.80322 13.6664 8.32768 14.7005 8.62315L18.6597 9.75434C18.843 9.8067 18.9026 10.0367 18.7678 10.1715L14.4746 14.4647Z" fill="black"/>
<path d="M14.4746 14.4647L14.4695 14.4697L14.4644 14.4748L10.1713 18.768C10.0365 18.9028 9.80646 18.8432 9.75409 18.6599L8.62291 14.7008C8.32743 13.6666 7.80297 12.7122 7.08842 11.9083C6.33378 11.0594 5.38816 10.4019 4.32952 9.99024L2.69999 9.35654C2.53175 9.29111 2.48618 9.0744 2.61383 8.94676L8.94652 2.61407C9.07416 2.48643 9.29087 2.532 9.35629 2.70024L9.99 4.32976C10.4017 5.3884 11.0591 6.33403 11.9081 7.08866C12.712 7.80322 13.6664 8.32768 14.7005 8.62315L18.6597 9.75434C18.843 9.8067 18.9026 10.0367 18.7678 10.1715L14.4746 14.4647Z" fill="black"/>
</svg>
