<svg width="24" height="24" viewBox="0 0 24 24" fill="none" xmlns="http://www.w3.org/2000/svg">
<path fill-rule="evenodd" clip-rule="evenodd" d="M11.1244 1.2344C11.6658 0.921865 12.3328 0.921866 12.8742 1.2344L21.1242 5.9969C22.0007 6.49495 21.9999 6.65276 21.9984 6.92981L21.9983 6.93528C21.9711 7.26905 21.7967 7.46373 21.1242 7.84912L20.4993 8.23439L12.7493 12.7082C12.2079 13.0208 11.7908 13.0208 11.2493 12.7082L2.87441 7.84912C2.20193 7.46373 2.02748 7.26905 2.00024 6.93528L2.00021 6.92986C1.99871 6.65278 1.99786 6.49498 2.87441 5.9969L11.1244 1.2344ZM11.8743 2.53349C11.9517 2.48884 12.047 2.48884 12.1243 2.53349L19.7495 6.93528L11.9993 11.4092L4.24921 6.93526L11.8743 2.53349ZM2.8743 12.417L11.2492 17.2761C11.7906 17.5886 12.2078 17.5886 12.7492 17.2761L20.4992 12.8022L21.1241 12.417C21.7966 12.0316 21.971 11.8369 21.9982 11.5031L21.9983 11.4977C21.9998 11.2206 22.0001 10.5 21.0001 10.5L20.1518 11.0034L12.749 15.2759C12.2076 15.5884 11.7904 15.5884 11.249 15.2759L3.85281 10.9999L3.00009 10.5C2.00009 10.5 1.9986 11.2206 2.0001 11.4977L2.00013 11.5031C2.02738 11.8369 2.20182 12.0316 2.8743 12.417ZM11.2492 22.2761L2.8743 17.417C2.20182 17.0316 2.02738 16.8369 2.00013 16.5031L2.0001 16.4977C1.9986 16.2206 2.00009 15.5 3.00009 15.5L3.85281 15.9999L11.249 20.2759C11.7904 20.5884 12.2076 20.5884 12.749 20.2759L20.1518 16.0034L21.0001 15.5C22.0001 15.5 21.9998 16.2206 21.9983 16.4977L21.9982 16.5031C21.971 16.8369 21.7966 17.0316 21.1241 17.417L20.4992 17.8022L12.7492 22.2761C12.2078 22.5886 11.7906 22.5886 11.2492 22.2761Z" fill="black"/>
</svg>
