<svg width="24" height="24" viewBox="0 0 24 24" fill="none" xmlns="http://www.w3.org/2000/svg">
<path fill-rule="evenodd" clip-rule="evenodd" d="M2.5 1C1.67157 1 1 1.67157 1 2.5V10.9393C1 11.3372 1.15804 11.7187 1.43934 12L11.6893 22.25C12.2751 22.8358 13.2249 22.8358 13.8107 22.25L22.25 13.8107C22.8358 13.2249 22.8358 12.2751 22.25 11.6893L12 1.43934C11.7187 1.15804 11.3372 1 10.9393 1H2.5ZM2.5 2.5H10.9393L21.1893 12.75L12.75 21.1893L2.5 10.9393V2.5Z" fill="black"/>
<path d="M11.7267 10.1247C11.5195 9.95252 11.2972 9.88009 11.0598 9.90746C10.8224 9.93483 10.5902 10.062 10.3632 10.289C10.209 10.4432 10.1023 10.5969 10.0431 10.7502C9.98233 10.9018 9.96434 11.0468 9.98911 11.1851C10.0153 11.3219 10.0802 11.442 10.1836 11.5455C10.267 11.6346 10.3589 11.6931 10.4596 11.721C10.5617 11.7475 10.669 11.7515 10.7815 11.733C10.8924 11.713 11.008 11.6773 11.1284 11.626C11.2471 11.573 11.367 11.5096 11.488 11.4356L11.993 11.1375C12.235 10.9896 12.4767 10.8733 12.718 10.7888C12.9594 10.7042 13.1969 10.6595 13.4307 10.6546C13.6644 10.6497 13.8916 10.6921 14.1123 10.7819C14.3344 10.8701 14.5465 11.0139 14.7486 11.2131C15.0419 11.5092 15.2276 11.8346 15.3057 12.1891C15.3837 12.5407 15.3527 12.9055 15.2129 13.2836C15.1153 13.5453 14.9632 13.8042 14.7566 14.0604C14.731 14.0922 14.7045 14.1239 14.6772 14.1557C14.6091 14.2347 14.5358 14.3134 14.4574 14.3919C14.322 14.5272 14.1849 14.6476 14.0459 14.753C13.8143 14.9288 13.5776 15.0631 13.3358 15.156C12.9504 15.3031 12.566 15.3348 12.1826 15.2511C11.799 15.1643 11.4304 14.9514 11.0767 14.6122L11.9911 13.6978C12.1628 13.8491 12.3405 13.941 12.5243 13.9735C12.7081 14.003 12.8914 13.9811 13.0743 13.9079C13.2571 13.8317 13.4299 13.7122 13.5929 13.5492C13.7529 13.3892 13.8668 13.2251 13.9345 13.0571C14.0036 12.8877 14.0262 12.7255 14.0024 12.5707C13.9785 12.4159 13.9085 12.2804 13.7925 12.1644C13.6844 12.0563 13.5636 11.9952 13.4303 11.9812C13.2984 11.9657 13.1499 11.9888 12.9847 12.0506C12.8209 12.1109 12.6364 12.2013 12.4311 12.322L11.8127 12.677C11.3371 12.955 10.8852 13.0982 10.4569 13.1063C10.0286 13.1145 9.63723 12.94 9.28284 12.5827C8.98981 12.2925 8.80709 11.9658 8.73469 11.6024C8.66374 11.2375 8.69517 10.8659 8.82896 10.4876C8.88214 10.3372 8.95049 10.191 9.034 10.0489C9.07118 9.98568 9.11136 9.92325 9.15455 9.86165C9.25847 9.71342 9.37979 9.56994 9.51852 9.43121C9.59302 9.35672 9.66847 9.28744 9.74487 9.22336C9.77898 9.19476 9.81329 9.16719 9.84778 9.14066C10.0801 8.96201 10.321 8.83046 10.5705 8.74602C10.9416 8.6195 11.3052 8.59607 11.6613 8.67575C12.0174 8.75543 12.3411 8.93652 12.6324 9.21903L11.7267 10.1247Z" fill="black"/>
<path d="M14.7566 14.0604C14.731 14.0922 14.7045 14.1239 14.6772 14.1557C14.6091 14.2347 14.5358 14.3134 14.4574 14.3919C14.322 14.5272 14.1849 14.6476 14.0459 14.753L14.7782 15.4853L15.4853 14.7782L14.7566 14.0604Z" fill="black"/>
<path d="M9.51852 9.43121C9.59302 9.35672 9.66847 9.28744 9.74487 9.22336C9.77898 9.19476 9.81329 9.16719 9.84778 9.14066L9.12132 8.4142L8.41421 9.12131L9.15455 9.86165C9.25847 9.71342 9.37979 9.56994 9.51852 9.43121Z" fill="black"/>
</svg>
