<svg width="16" height="15" viewBox="0 0 16 15" fill="none" xmlns="http://www.w3.org/2000/svg">
<path d="M14.6676 14.1669L11.2926 10.7919M11.2926 10.7919C11.8343 10.2502 12.264 9.60708 12.5572 8.89932C12.8504 8.19155 13.0012 7.43297 13.0012 6.66688C13.0012 5.9008 12.8504 5.14222 12.5572 4.43445C12.264 3.72668 11.8343 3.08359 11.2926 2.54188C10.7509 2.00018 10.1078 1.57048 9.40005 1.27731C8.69228 0.984143 7.9337 0.833252 7.16762 0.833252C6.40153 0.833252 5.64295 0.984143 4.93518 1.27731C4.22741 1.57048 3.58432 2.00018 3.04262 2.54188C1.9486 3.6359 1.33398 5.11971 1.33398 6.66688C1.33398 8.21406 1.9486 9.69786 3.04262 10.7919C4.13663 11.8859 5.62044 12.5005 7.16762 12.5005C8.71479 12.5005 10.1986 11.8859 11.2926 10.7919Z" stroke="#9CA3AF" stroke-width="1.66667" stroke-linecap="round" stroke-linejoin="round"/>
</svg>
