<svg width="20" height="20" viewBox="0 0 20 20" fill="none" xmlns="http://www.w3.org/2000/svg">
<path fill-rule="evenodd" clip-rule="evenodd" d="M13.333 10.0002C13.333 11.8411 11.8406 13.3335 9.99967 13.3335C8.15872 13.3335 6.66634 11.8411 6.66634 10.0002C6.66634 8.15921 8.15872 6.66683 9.99967 6.66683C11.8406 6.66683 13.333 8.15921 13.333 10.0002ZM12.083 10.0002C12.083 11.1508 11.1503 12.0835 9.99967 12.0835C8.84908 12.0835 7.91634 11.1508 7.91634 10.0002C7.91634 8.84957 8.84908 7.91683 9.99967 7.91683C11.1503 7.91683 12.083 8.84957 12.083 10.0002Z" fill="black"/>
<path fill-rule="evenodd" clip-rule="evenodd" d="M9.99967 0.833496C9.77648 0.833496 9.55505 0.841484 9.33566 0.857205C8.69936 0.902799 8.2144 1.37077 8.07538 1.94331L7.78201 3.15158C7.76618 3.21679 7.7074 3.29506 7.59504 3.33561C7.38789 3.41036 7.18525 3.49448 6.98763 3.58745C6.87967 3.63824 6.7828 3.62451 6.72547 3.58957L5.66355 2.94258C5.16064 2.63617 4.4872 2.64801 4.00501 3.06515C3.66937 3.35553 3.35504 3.66986 3.06467 4.0055C2.64752 4.48769 2.63568 5.16113 2.94209 5.66404L3.58908 6.72595C3.62402 6.78329 3.63775 6.88016 3.58696 6.98812C3.49399 7.18574 3.40987 7.38838 3.33512 7.59553C3.29457 7.70789 3.2163 7.76667 3.15109 7.7825L1.94282 8.07587C1.37028 8.21488 0.902311 8.69985 0.856717 9.33614C0.840996 9.55554 0.833008 9.77697 0.833008 10.0002C0.833008 10.2234 0.840996 10.4448 0.856717 10.6642C0.902311 11.3005 1.37028 11.7854 1.94282 11.9245L3.15109 12.2178C3.2163 12.2337 3.29457 12.2924 3.33512 12.4048C3.40987 12.6119 3.49399 12.8146 3.58696 13.0122C3.63775 13.1202 3.62402 13.217 3.58908 13.2744L2.94209 14.3363C2.63568 14.8392 2.64752 15.5126 3.06467 15.9948C3.35504 16.3305 3.66937 16.6448 4.00501 16.9352C4.4872 17.3523 5.16064 17.3642 5.66355 17.0577L6.72547 16.4108C6.7828 16.3758 6.87967 16.3621 6.98763 16.4129C7.18525 16.5058 7.38789 16.59 7.59504 16.6647C7.7074 16.7053 7.76618 16.7835 7.78201 16.8487L8.07538 18.057C8.2144 18.6296 8.69936 19.0975 9.33566 19.1431C9.55505 19.1588 9.77648 19.1668 9.99967 19.1668C10.2229 19.1668 10.4443 19.1588 10.6637 19.1431C11.3 19.0975 11.785 18.6296 11.924 18.057L12.2173 16.8487C12.2332 16.7835 12.2919 16.7053 12.4043 16.6647C12.6115 16.59 12.8141 16.5058 13.0117 16.4129C13.1197 16.3621 13.2165 16.3758 13.2739 16.4108L14.3358 17.0577C14.8387 17.3642 15.5121 17.3523 15.9943 16.9352C16.33 16.6448 16.6443 16.3305 16.9347 15.9948C17.3518 15.5126 17.3637 14.8392 17.0573 14.3363L16.4103 13.2744C16.3753 13.217 16.3616 13.1202 16.4124 13.0122C16.5054 12.8146 16.5895 12.6119 16.6642 12.4048C16.7048 12.2924 16.783 12.2337 16.8483 12.2178L18.0565 11.9245C18.6291 11.7854 19.097 11.3005 19.1426 10.6642C19.1583 10.4448 19.1663 10.2234 19.1663 10.0002C19.1663 9.77697 19.1583 9.55554 19.1426 9.33614C19.097 8.69985 18.6291 8.21488 18.0565 8.07587L16.8483 7.7825C16.783 7.76667 16.7048 7.70789 16.6642 7.59553C16.5895 7.38838 16.5054 7.18574 16.4124 6.98812C16.3616 6.88016 16.3753 6.78329 16.4103 6.72595L17.0573 5.66404C17.3637 5.16113 17.3518 4.48769 16.9347 4.0055C16.6443 3.66986 16.33 3.35553 15.9943 3.06515C15.5121 2.64801 14.8387 2.63617 14.3358 2.94258L13.2739 3.58957C13.2165 3.62451 13.1197 3.63824 13.0117 3.58745C12.8141 3.49448 12.6115 3.41036 12.4043 3.33561C12.2919 3.29506 12.2332 3.21679 12.2173 3.15158L11.924 1.94331C11.785 1.37077 11.3 0.902799 10.6637 0.857205C10.4443 0.841484 10.2229 0.833496 9.99967 0.833496ZM9.425 2.10401C9.61468 2.09042 9.80632 2.0835 9.99967 2.0835C10.193 2.0835 10.3847 2.09042 10.5744 2.10401C10.6206 2.10732 10.6868 2.14579 10.7093 2.23824L11.0026 3.44651C11.1295 3.96893 11.5236 4.34668 11.98 4.51139C12.1503 4.57286 12.317 4.64205 12.4796 4.71854C12.919 4.92524 13.465 4.93684 13.9243 4.65705L14.9862 4.01005C15.0674 3.96057 15.1414 3.98012 15.1765 4.01049C15.4666 4.26148 15.7384 4.5332 15.9893 4.82333C16.0197 4.85843 16.0393 4.93244 15.9898 5.01366L15.3428 6.07557C15.063 6.53479 15.0746 7.08084 15.2813 7.52023C15.3578 7.68282 15.427 7.84949 15.4884 8.01983C15.6532 8.47626 16.0309 8.87037 16.5533 8.99721L17.7616 9.29058C17.854 9.31302 17.8925 9.37921 17.8958 9.42548C17.9094 9.61517 17.9163 9.80681 17.9163 10.0002C17.9163 10.1935 17.9094 10.3852 17.8958 10.5748C17.8925 10.6211 17.854 10.6873 17.7616 10.7097L16.5533 11.0031C16.0309 11.13 15.6532 11.5241 15.4884 11.9805C15.427 12.1508 15.3578 12.3175 15.2813 12.4801C15.0746 12.9195 15.063 13.4655 15.3428 13.9248L15.9898 14.9867C16.0393 15.0679 16.0197 15.1419 15.9893 15.177C15.7384 15.4671 15.4666 15.7388 15.1765 15.9898C15.1414 16.0202 15.0674 16.0398 14.9862 15.9903L13.9243 15.3433C13.465 15.0635 12.919 15.0751 12.4796 15.2818C12.317 15.3583 12.1503 15.4275 11.98 15.4889C11.5236 15.6536 11.1295 16.0314 11.0026 16.5538L10.7093 17.7621C10.6868 17.8545 10.6206 17.893 10.5744 17.8963C10.3847 17.9099 10.193 17.9168 9.99967 17.9168C9.80632 17.9168 9.61468 17.9099 9.425 17.8963C9.37872 17.893 9.31254 17.8545 9.29009 17.7621L8.99672 16.5538C8.86988 16.0314 8.47577 15.6536 8.01934 15.4889C7.84901 15.4275 7.68233 15.3583 7.51974 15.2818C7.08036 15.0751 6.53431 15.0635 6.07509 15.3433L5.01317 15.9903C4.93195 16.0398 4.85794 16.0202 4.82284 15.9898C4.53271 15.7388 4.261 15.4671 4.01 15.177C3.97963 15.1419 3.96009 15.0679 4.00957 14.9867L4.65656 13.9247C4.93635 13.4655 4.92476 12.9195 4.71805 12.4801C4.64156 12.3175 4.57237 12.1508 4.51091 11.9805C4.3462 11.5241 3.96844 11.13 3.44603 11.0031L2.23776 10.7097C2.1453 10.6873 2.10684 10.6211 2.10352 10.5748C2.08993 10.3852 2.08301 10.1935 2.08301 10.0002C2.08301 9.80681 2.08993 9.61517 2.10352 9.42548C2.10684 9.37921 2.1453 9.31302 2.23776 9.29058L3.44603 8.99721C3.96844 8.87037 4.3462 8.47626 4.51091 8.01983C4.57237 7.84949 4.64156 7.68282 4.71805 7.52023C4.92476 7.08084 4.93635 6.5348 4.65656 6.07557L4.00957 5.01366C3.96009 4.93244 3.97963 4.85843 4.01 4.82333C4.261 4.5332 4.53271 4.26148 4.82284 4.01049C4.85794 3.98012 4.93195 3.96057 5.01317 4.01005L6.07509 4.65705C6.53431 4.93684 7.08036 4.92525 7.51974 4.71854C7.68233 4.64205 7.84901 4.57286 8.01934 4.51139C8.47577 4.34668 8.86988 3.96893 8.99672 3.44651L9.29009 2.23824C9.31254 2.14579 9.37872 2.10732 9.425 2.10401Z" fill="black"/>
</svg>