<svg width="24" height="24" viewBox="0 0 24 24" fill="none" xmlns="http://www.w3.org/2000/svg">
<path fill-rule="evenodd" clip-rule="evenodd" d="M15.4444 3.55556V4.66667H20.1111C20.4793 4.66667 20.7778 4.96514 20.7778 5.33333C20.7778 5.70152 20.4793 6 20.1111 6H3.66667C3.29848 6 3 5.70152 3 5.33333C3 4.96514 3.29848 4.66667 3.66667 4.66667H8.33334V3.55556C8.33334 2.69645 9.02978 2 9.88889 2H13.8889C14.748 2 15.4444 2.69645 15.4444 3.55556ZM9.66667 3.55556C9.66667 3.43283 9.76616 3.33333 9.88889 3.33333H13.8889C14.0116 3.33333 14.1111 3.43283 14.1111 3.55556V4.66667H9.66667V3.55556Z" fill="black"/>
<path d="M5.66667 6H4.33333L5.59208 20.5943C5.66924 21.3916 6.33933 22 7.1404 22H16.6375C17.4385 22 18.1086 21.3916 18.1858 20.5943L19.4445 6H18.1111H5.66667Z" fill="black"/>
</svg>
