<svg width="17" height="20" viewBox="0 0 17 20" fill="none" xmlns="http://www.w3.org/2000/svg">
<path d="M11.9 1.55556V2.66667H16.3625C16.5316 2.66667 16.6937 2.7369 16.8133 2.86193C16.9328 2.98695 17 3.15652 17 3.33333C17 3.51014 16.9328 3.67971 16.8133 3.80474C16.6937 3.92976 16.5316 4 16.3625 4H0.6375C0.468424 4 0.306274 3.92976 0.186719 3.80474C0.0671649 3.67971 0 3.51014 0 3.33333C0 3.15652 0.0671649 2.98695 0.186719 2.86193C0.306274 2.7369 0.468424 2.66667 0.6375 2.66667H5.1V1.55556C5.1 0.696889 5.7664 0 6.5875 0H10.4125C11.2336 0 11.9 0.696889 11.9 1.55556ZM6.375 1.55556V2.66667H10.625V1.55556C10.625 1.49662 10.6026 1.4401 10.5628 1.39842C10.5229 1.35675 10.4689 1.33333 10.4125 1.33333H6.5875C6.53114 1.33333 6.47709 1.35675 6.43724 1.39842C6.39739 1.4401 6.375 1.49662 6.375 1.55556ZM2.54745 5.49156C2.54018 5.40379 2.51635 5.3184 2.47734 5.24032C2.43832 5.16224 2.3849 5.09302 2.32015 5.03666C2.2554 4.98031 2.18061 4.93793 2.10011 4.91198C2.0196 4.88603 1.93498 4.87702 1.85112 4.88548C1.76727 4.89394 1.68585 4.91969 1.61157 4.96125C1.5373 5.00282 1.47163 5.05936 1.41838 5.12762C1.36512 5.19588 1.32533 5.2745 1.3013 5.35894C1.27728 5.44337 1.26949 5.53195 1.2784 5.61956L2.4786 18.5956C2.5145 18.9802 2.68601 19.337 2.95972 19.5967C3.23344 19.8563 3.58977 20.0001 3.9593 20H13.0407C13.4104 20 13.7668 19.8561 14.0405 19.5963C14.3143 19.3365 14.4857 18.9794 14.5214 18.5947L15.7225 5.61956C15.7387 5.44345 15.6874 5.26782 15.5798 5.13129C15.4722 4.99477 15.3171 4.90853 15.1487 4.89156C14.9803 4.87458 14.8124 4.92826 14.6818 5.04078C14.5512 5.1533 14.4688 5.31545 14.4526 5.49156L13.2523 18.4658C13.2473 18.5208 13.2228 18.5719 13.1837 18.609C13.1445 18.6461 13.0935 18.6667 13.0407 18.6667H3.9593C3.90645 18.6667 3.85549 18.6461 3.81635 18.609C3.77722 18.5719 3.75272 18.5208 3.74765 18.4658L2.54745 5.49156Z" fill="#000000"/>
<path d="M6.12453 6.66761C6.20814 6.66244 6.29191 6.67455 6.37104 6.70325C6.45018 6.73195 6.52313 6.77668 6.58573 6.83487C6.64833 6.89307 6.69934 6.9636 6.73587 7.04243C6.77239 7.12125 6.7937 7.20683 6.79858 7.29427L7.22358 14.8498C7.2335 15.0265 7.17589 15.2001 7.06343 15.3324C6.95097 15.4647 6.79286 15.5448 6.6239 15.5552C6.45494 15.5655 6.28896 15.5053 6.16247 15.3877C6.03598 15.2701 5.95935 15.1047 5.94943 14.9281L5.52443 7.3725C5.51948 7.28506 5.53106 7.19746 5.55851 7.1147C5.58595 7.03195 5.62872 6.95566 5.68438 6.89019C5.74003 6.82473 5.80747 6.77138 5.88285 6.73319C5.95822 6.695 6.04006 6.67271 6.12368 6.66761H6.12453ZM11.4736 7.3725C11.4835 7.1958 11.4259 7.02223 11.3134 6.88995C11.201 6.75768 11.0429 6.67754 10.8739 6.66716C10.7049 6.65679 10.539 6.71703 10.4125 6.83464C10.286 6.95225 10.2093 7.11758 10.1994 7.29427L9.77443 14.8498C9.76451 15.0264 9.82207 15.1999 9.93445 15.3321C10.0468 15.4643 10.2048 15.5443 10.3737 15.5547C10.5425 15.5651 10.7084 15.5049 10.8348 15.3874C10.9612 15.2699 11.0378 15.1046 11.0477 14.9281L11.4736 7.3725Z" fill="#000000"/>
</svg>