<svg width="24" height="24" viewBox="0 0 24 24" fill="none" xmlns="http://www.w3.org/2000/svg">
<path d="M10.4471 1.91094L0.30075 20.4276C-0.340915 21.5849 0.512729 23 1.85335 23H22.1518C23.4866 23 24.3403 21.5849 23.7044 20.4276L13.5523 1.91094C12.882 0.696354 11.1174 0.696354 10.4471 1.91094ZM13.008 9.59375L12.8018 16.5833H11.1976L10.9914 9.59375H13.008ZM11.9997 20.3875C11.3867 20.3875 10.9054 19.9234 10.9054 19.3333C10.9054 18.7432 11.3867 18.2792 11.9997 18.2792C12.6127 18.2792 13.094 18.7432 13.094 19.3333C13.094 19.9234 12.6127 20.3875 11.9997 20.3875Z" fill="black"/>
</svg>
