<svg width="24" height="24" viewBox="0 0 24 24" fill="none" xmlns="http://www.w3.org/2000/svg">
<path d="M9.1 2C7.9402 2 7 2.9402 7 4.1V6H8.4V4.1C8.4 3.7134 8.7134 3.4 9.1 3.4H18.9C19.2866 3.4 19.6 3.7134 19.6 4.1V11.1C19.6 11.4866 19.2866 11.8 18.9 11.8H12V13.2H13.3V14.6H11.9C11.5134 14.6 11.2 14.9134 11.2 15.3C11.2 15.6866 11.5134 16 11.9 16H16.1C16.4866 16 16.8 15.6866 16.8 15.3C16.8 14.9134 16.4866 14.6 16.1 14.6H14.7V13.2H18.9C20.0598 13.2 21 12.2598 21 11.1V4.1C21 2.9402 20.0598 2 18.9 2H9.1Z" fill="black"/>
<path d="M18 7V8H12V7H18Z" fill="black"/>
<path d="M18 5V6H10V5H18Z" fill="black"/>
<path fill-rule="evenodd" clip-rule="evenodd" d="M10.9413 10.9567C10.9413 13.153 9.18034 14.9141 6.98246 14.9141C4.78533 14.9141 3.02358 13.153 3.02358 10.9567C3.02358 8.76035 4.78533 7 6.98246 7C9.18034 7 10.9413 8.76035 10.9413 10.9567ZM6.98245 21.8261C3.73875 21.8261 1 21.2989 1 19.2648C1 17.23 3.75595 16.7215 6.98245 16.7215C10.2269 16.7215 12.9649 17.2487 12.9649 19.2828C12.9649 21.3176 10.209 21.8261 6.98245 21.8261Z" fill="black"/>
</svg>
