<svg width="24" height="24" viewBox="0 0 24 24" fill="none" xmlns="http://www.w3.org/2000/svg">
<path fill-rule="evenodd" clip-rule="evenodd" d="M16.168 2.92403L4.51001 13.061C4.47145 13.0944 4.44403 13.1388 4.43142 13.1882C4.41881 13.2376 4.42162 13.2897 4.43947 13.3375C4.45731 13.3853 4.48935 13.4265 4.53128 13.4555C4.5732 13.4846 4.62301 13.5001 4.67401 13.5H10.124C10.2478 13.4999 10.3697 13.5304 10.4788 13.5888C10.5879 13.6473 10.6808 13.7318 10.7494 13.8348C10.8179 13.9379 10.8598 14.0563 10.8715 14.1796C10.8831 14.3028 10.864 14.427 10.816 14.541L8.25701 20.607L19.472 10.939C19.5106 10.9056 19.538 10.8613 19.5506 10.8118C19.5632 10.7624 19.5604 10.7103 19.5426 10.6625C19.5247 10.6148 19.4927 10.5736 19.4508 10.5445C19.4088 10.5155 19.359 10.5 19.308 10.5H14C13.8755 10.5 13.753 10.4689 13.6435 10.4097C13.534 10.3504 13.441 10.2648 13.3728 10.1607C13.3046 10.0565 13.2635 9.93697 13.253 9.81291C13.2426 9.68885 13.2632 9.56414 13.313 9.45003L16.168 2.92403V2.92403ZM15.716 1.32903C15.9458 1.12876 16.2369 1.01273 16.5414 1.00006C16.846 0.987393 17.1457 1.07884 17.3913 1.25934C17.6369 1.43984 17.8137 1.69862 17.8925 1.99304C17.9714 2.28746 17.9476 2.59996 17.825 2.87903L15.147 9.00003H19.308C20.931 9.00003 21.68 11.016 20.451 12.075L8.10201 22.721C7.90579 22.8909 7.65782 22.9894 7.3985 23.0003C7.13918 23.0113 6.88379 22.9342 6.67391 22.7815C6.46404 22.6287 6.31205 22.4095 6.2427 22.1594C6.17336 21.9092 6.19074 21.643 6.29201 21.404L8.99601 15H4.67401C3.05501 15 2.30401 12.992 3.52601 11.93L15.716 1.33003V1.32903Z" fill="black"/>
</svg>
